<svg width="30" height="30" viewBox="0 0 30 30" fill="none" xmlns="http://www.w3.org/2000/svg">
<mask id="path-1-inside-1_2038_147" fill="white">
<path d="M17.377 5.00293C21.7738 6.21289 24.9961 10.1435 24.9961 14.8086C24.996 20.4372 20.306 25 14.5205 25C10.2928 25 6.6533 22.5621 4.99805 19.0537C5.90629 19.3036 6.86399 19.4414 7.85449 19.4414C13.64 19.4412 18.3301 14.8776 18.3301 9.24902C18.33 7.73318 17.9871 6.29587 17.377 5.00293Z"/>
</mask>
<path d="M17.377 5.00293L17.6423 4.03877L15.5437 3.46127L16.4726 5.4297L17.377 5.00293ZM24.9961 14.8086L25.9961 14.8086V14.8086H24.9961ZM14.5205 25L14.5205 26L14.5205 26L14.5205 25ZM4.99805 19.0537L5.26336 18.0895L3.16501 17.5121L4.09365 19.4804L4.99805 19.0537ZM7.85449 19.4414L7.85449 20.4414L7.85452 20.4414L7.85449 19.4414ZM18.3301 9.24902L19.3301 9.24902L19.3301 9.24899L18.3301 9.24902ZM17.377 5.00293L17.1116 5.96709C21.1024 7.06528 23.9961 10.6219 23.9961 14.8086H24.9961H25.9961C25.9961 9.66522 22.4453 5.3605 17.6423 4.03877L17.377 5.00293ZM24.9961 14.8086L23.9961 14.8086C23.996 19.8592 19.7798 24 14.5205 24L14.5205 25L14.5205 26C20.8322 26 25.996 21.0152 25.9961 14.8086L24.9961 14.8086ZM14.5205 25V24C10.6833 24 7.39405 21.7885 5.90244 18.627L4.99805 19.0537L4.09365 19.4804C5.91255 23.3356 9.90233 26 14.5205 26V25ZM4.99805 19.0537L4.73273 20.0179C5.72395 20.2906 6.77083 20.4414 7.85449 20.4414V19.4414V18.4414C6.95715 18.4414 6.08863 18.3166 5.26336 18.0895L4.99805 19.0537ZM7.85449 19.4414L7.85452 20.4414C14.1662 20.4412 19.3301 15.4556 19.3301 9.24902H18.3301H17.3301C17.3301 14.2997 13.1137 18.4413 7.85446 18.4414L7.85449 19.4414ZM18.3301 9.24902L19.3301 9.24899C19.33 7.58053 18.9522 5.99789 18.2813 4.57616L17.377 5.00293L16.4726 5.4297C17.022 6.59384 17.33 7.88583 17.3301 9.24905L18.3301 9.24902Z" fill="white" mask="url(#path-1-inside-1_2038_147)"/>
</svg>
